<svg xmlns="http://www.w3.org/2000/svg" width="692.1249389648438" height="722.5343017578125" viewBox="-333.9869384765625 -331.6040344238281 692.1249389648438 722.5343017578125"><title>Neo4j Graph Visualization</title><desc>Created using Neo4j (http://www.neo4j.com/)</desc><g class="layer relationships"><g class="relationship" transform="translate(61.757847508433045 361.93029618245345) rotate(329.4448154197608)"><path class="b-outline" fill="#A5ABB6" stroke="none" d="M 25 0.5 L 59.07902258526434 0.5 L 59.07902258526434 -0.5 L 25 -0.5 Z M 77.97746008526434 0.5 L 112.05648267052868 0.5 L 112.05648267052868 3.5 L 119.05648267052868 0 L 112.05648267052868 -3.5 L 112.05648267052868 -0.5 L 77.97746008526434 -0.5 Z"/><text text-anchor="middle" pointer-events="none" font-size="8px" fill="#000000" x="68.52824133526434" y="3" font-family="Helvetica Neue, Helvetica, Arial, sans-serif">has</text></g><g class="relationship" transform="translate(146.15775624966477 144.7677247867939) rotate(434.5969417003272)"><path class="b-outline" fill="#FFC454" stroke="none" d="M 25 0.5 L 54.5831108075523 0.5 L 54.5831108075523 -0.5 L 25 -0.5 Z M 87.7081108075523 0.5 L 117.2912216151046 0.5 L 117.2912216151046 3.5 L 124.2912216151046 0 L 117.2912216151046 -3.5 L 117.2912216151046 -0.5 L 87.7081108075523 -0.5 Z"/><text text-anchor="middle" pointer-events="none" font-size="8px" fill="#000000" x="71.1456108075523" y="3" font-family="Helvetica Neue, Helvetica, Arial, sans-serif">links_to</text></g><g class="relationship" transform="translate(146.15775624966477 144.7677247867939) rotate(238.02075582622246)"><path class="b-outline" fill="#A5ABB6" stroke="none" d="M 25 0.5 L 55.80198724432472 0.5 L 55.80198724432472 -0.5 L 25 -0.5 Z M 91.59886224432472 0.5 L 122.40084948864944 0.5 L 122.40084948864944 3.5 L 129.40084948864944 0 L 122.40084948864944 -3.5 L 122.40084948864944 -0.5 L 91.59886224432472 -0.5 Z"/><text text-anchor="middle" pointer-events="none" font-size="8px" fill="#000000" x="73.70042474432472" y="3" transform="rotate(180 73.70042474432472 0)" font-family="Helvetica Neue, Helvetica, Arial, sans-serif">contains</text></g><g class="relationship" transform="translate(64.3852108204152 13.79874702168384) rotate(352.0529549131503)"><path class="b-outline" fill="#A5ABB6" stroke="none" d="M 25 0.5 L 61.0043185779581 0.5 L 61.0043185779581 -0.5 L 25 -0.5 Z M 87.4535373279581 0.5 L 123.4578559059162 0.5 L 123.4578559059162 3.5 L 130.4578559059162 0 L 123.4578559059162 -3.5 L 123.4578559059162 -0.5 L 87.4535373279581 -0.5 Z"/><text text-anchor="middle" pointer-events="none" font-size="8px" fill="#000000" x="74.2289279529581" y="3" font-family="Helvetica Neue, Helvetica, Arial, sans-serif">refers</text></g><g class="relationship" transform="translate(64.3852108204152 13.79874702168384) rotate(526.3614792106774)"><path class="b-outline" fill="#A5ABB6" stroke="none" d="M 25 0.5 L 60.88953155927166 0.5 L 60.88953155927166 -0.5 L 25 -0.5 Z M 87.33875030927166 0.5 L 123.22828186854332 0.5 L 123.22828186854332 3.5 L 130.22828186854332 0 L 123.22828186854332 -3.5 L 123.22828186854332 -0.5 L 87.33875030927166 -0.5 Z"/><text text-anchor="middle" pointer-events="none" font-size="8px" fill="#000000" x="74.11414093427166" y="3" transform="rotate(180 74.11414093427166 0)" font-family="Helvetica Neue, Helvetica, Arial, sans-serif">refers</text></g><g class="relationship" transform="translate(64.3852108204152 13.79874702168384) rotate(243.42231720354783)"><path class="b-outline" fill="#A5ABB6" stroke="none" d="M 25 0.5 L 61.48693713787557 0.5 L 61.48693713787557 -0.5 L 25 -0.5 Z M 87.93615588787557 0.5 L 124.42309302575114 0.5 L 124.42309302575114 3.5 L 131.42309302575114 0 L 124.42309302575114 -3.5 L 124.42309302575114 -0.5 L 87.93615588787557 -0.5 Z"/><text text-anchor="middle" pointer-events="none" font-size="8px" fill="#000000" x="74.71154651287557" y="3" transform="rotate(180 74.71154651287557 0)" font-family="Helvetica Neue, Helvetica, Arial, sans-serif">refers</text></g><g class="relationship" transform="translate(-93.09383817609066 -251.572538141883) rotate(415.11251637607296)"><path class="b-outline" fill="#FFC454" stroke="none" d="M 25 0.5 L 56.4224357803148 0.5 L 56.4224357803148 -0.5 L 25 -0.5 Z M 89.5474357803148 0.5 L 120.9698715606296 0.5 L 120.9698715606296 3.5 L 127.9698715606296 0 L 120.9698715606296 -3.5 L 120.9698715606296 -0.5 L 89.5474357803148 -0.5 Z"/><text text-anchor="middle" pointer-events="none" font-size="8px" fill="#000000" x="72.9849357803148" y="3" font-family="Helvetica Neue, Helvetica, Arial, sans-serif">links_to</text></g><g class="relationship" transform="translate(-93.09383817609066 -251.572538141883) rotate(505.3712585314019)"><path class="b-outline" fill="#A5ABB6" stroke="none" d="M 25 0.5 L 44.11364585165974 0.5 L 44.11364585165974 -0.5 L 25 -0.5 Z M 94.59411460165974 0.5 L 113.70776045331948 0.5 L 113.70776045331948 3.5 L 120.70776045331948 0 L 113.70776045331948 -3.5 L 113.70776045331948 -0.5 L 94.59411460165974 -0.5 Z"/><text text-anchor="middle" pointer-events="none" font-size="8px" fill="#000000" x="69.35388022665974" y="3" transform="rotate(180 69.35388022665974 0)" font-family="Helvetica Neue, Helvetica, Arial, sans-serif">authored_by</text></g><g class="relationship" transform="translate(-93.09383817609066 -251.572538141883) rotate(200.71295185707447)"><path class="b-outline" fill="#A5ABB6" stroke="none" d="M 25 0.5 L 40.73800825216502 0.5 L 40.73800825216502 -0.5 L 25 -0.5 Z M 96.54660200216502 0.5 L 112.28461025433003 0.5 L 112.28461025433003 3.5 L 119.28461025433003 0 L 112.28461025433003 -3.5 L 112.28461025433003 -0.5 L 96.54660200216502 -0.5 Z"/><text text-anchor="middle" pointer-events="none" font-size="8px" fill="#000000" x="68.64230512716502" y="3" transform="rotate(180 68.64230512716502 0)" font-family="Helvetica Neue, Helvetica, Arial, sans-serif">has_message</text></g><g class="relationship" transform="translate(329.13799249727407 -109.51611675087302) rotate(497.4148815471858)"><path class="b-outline" fill="#FFC454" stroke="none" d="M 25 0.5 L 55.173125962333614 0.5 L 55.173125962333614 -0.5 L 25 -0.5 Z M 88.29812596233361 0.5 L 118.47125192466723 0.5 L 118.47125192466723 3.5 L 125.47125192466723 0 L 118.47125192466723 -3.5 L 118.47125192466723 -0.5 L 88.29812596233361 -0.5 Z"/><text text-anchor="middle" pointer-events="none" font-size="8px" fill="#000000" x="71.73562596233361" y="3" transform="rotate(180 71.73562596233361 0)" font-family="Helvetica Neue, Helvetica, Arial, sans-serif">links_to</text></g><g class="relationship" transform="translate(329.13799249727407 -109.51611675087302) rotate(216.03188662741587)"><path class="b-outline" fill="#A5ABB6" stroke="none" d="M 25 0.5 L 44.31676314610837 0.5 L 44.31676314610837 -0.5 L 25 -0.5 Z M 94.79723189610837 0.5 L 114.11399504221674 0.5 L 114.11399504221674 3.5 L 121.11399504221674 0 L 114.11399504221674 -3.5 L 114.11399504221674 -0.5 L 94.79723189610837 -0.5 Z"/><text text-anchor="middle" pointer-events="none" font-size="8px" fill="#000000" x="69.55699752110837" y="3" transform="rotate(180 69.55699752110837 0)" font-family="Helvetica Neue, Helvetica, Arial, sans-serif">authored_by</text></g><g class="relationship" transform="translate(329.13799249727407 -109.51611675087302) rotate(265.1464315901801)"><path class="b-outline" fill="#A5ABB6" stroke="none" d="M 25 0.5 L 41.228627735039325 0.5 L 41.228627735039325 -0.5 L 25 -0.5 Z M 97.03722148503932 0.5 L 113.26584922007865 0.5 L 113.26584922007865 3.5 L 120.26584922007865 0 L 113.26584922007865 -3.5 L 113.26584922007865 -0.5 L 97.03722148503932 -0.5 Z"/><text text-anchor="middle" pointer-events="none" font-size="8px" fill="#000000" x="69.13292461003932" y="3" transform="rotate(180 69.13292461003932 0)" font-family="Helvetica Neue, Helvetica, Arial, sans-serif">has_message</text></g><g class="relationship" transform="translate(-237.56635988733385 80.80414185164379) rotate(348.6232876056197)"><path class="b-outline" fill="#FFC454" stroke="none" d="M 25 0.5 L 57.00185870247245 0.5 L 57.00185870247245 -0.5 L 25 -0.5 Z M 90.12685870247245 0.5 L 122.1287174049449 0.5 L 122.1287174049449 3.5 L 129.1287174049449 0 L 122.1287174049449 -3.5 L 122.1287174049449 -0.5 L 90.12685870247245 -0.5 Z"/><text text-anchor="middle" pointer-events="none" font-size="8px" fill="#000000" x="73.56435870247245" y="3" font-family="Helvetica Neue, Helvetica, Arial, sans-serif">links_to</text></g><g class="relationship" transform="translate(-237.56635988733385 80.80414185164379) rotate(419.55174315814355)"><path class="b-outline" fill="#A5ABB6" stroke="none" d="M 25 0.5 L 43.99947068250599 0.5 L 43.99947068250599 -0.5 L 25 -0.5 Z M 94.47993943250599 0.5 L 113.47941011501197 0.5 L 113.47941011501197 3.5 L 120.47941011501197 0 L 113.47941011501197 -3.5 L 113.47941011501197 -0.5 L 94.47993943250599 -0.5 Z"/><text text-anchor="middle" pointer-events="none" font-size="8px" fill="#000000" x="69.23970505750599" y="3" font-family="Helvetica Neue, Helvetica, Arial, sans-serif">authored_by</text></g><g class="relationship" transform="translate(-237.56635988733385 80.80414185164379) rotate(477.9263408585809)"><path class="b-outline" fill="#A5ABB6" stroke="none" d="M 25 0.5 L 40.57453732667773 0.5 L 40.57453732667773 -0.5 L 25 -0.5 Z M 96.38313107667773 0.5 L 111.95766840335546 0.5 L 111.95766840335546 3.5 L 118.95766840335546 0 L 111.95766840335546 -3.5 L 111.95766840335546 -0.5 L 96.38313107667773 -0.5 Z"/><text text-anchor="middle" pointer-events="none" font-size="8px" fill="#000000" x="68.47883420167773" y="3" transform="rotate(180 68.47883420167773 0)" font-family="Helvetica Neue, Helvetica, Arial, sans-serif">has_message</text></g></g><g class="layer nodes"><g class="node" aria-label="graph-node179" transform="translate(61.757847508433045,361.93029618245345)"><circle class="b-outline" cx="0" cy="0" r="25" fill="#D9C8AE" stroke="#c0a378" stroke-width="2px"/><text class="caption" text-anchor="middle" pointer-events="none" x="0" y="5" font-size="10px" fill="#2A2C34" font-family="Helvetica Neue, Helvetica, Arial, sans-serif"> https://gi…</text></g><g class="node" aria-label="graph-node183" transform="translate(185.81063604150793,288.69658907587217)"><circle class="b-outline" cx="0" cy="0" r="25" fill="#57C7E3" stroke="#23b3d7" stroke-width="2px"/><text class="caption" text-anchor="middle" pointer-events="none" x="0" y="5" font-size="10px" fill="#2A2C34" font-family="Helvetica Neue, Helvetica, Arial, sans-serif"> dunfell</text></g><g class="node" aria-label="graph-node182" transform="translate(146.15775624966477,144.7677247867939)"><circle class="b-outline" cx="0" cy="0" r="25" fill="#F79767" stroke="#f36924" stroke-width="2px"/><text class="caption" text-anchor="middle" pointer-events="none" x="0" y="5" font-size="10px" fill="#FFFFFF" font-family="Helvetica Neue, Helvetica, Arial, sans-serif"> 631544a…</text></g><g class="node" aria-label="graph-node203" transform="translate(64.3852108204152,13.79874702168384)"><circle class="b-outline" cx="0" cy="0" r="25" fill="#ECB5C9" stroke="#da7298" stroke-width="2px"/><text class="caption" text-anchor="middle" pointer-events="none" x="0" y="5" font-size="10px" fill="#2A2C34" font-family="Helvetica Neue, Helvetica, Arial, sans-serif"> fmu-proj…</text></g><g class="node" aria-label="graph-node204" transform="translate(218.35009219549178,-7.694513922696063)"><circle class="b-outline" cx="0" cy="0" r="25" fill="#57C7E3" stroke="#23b3d7" stroke-width="2px"/><text class="caption" text-anchor="middle" pointer-events="none" x="0" y="5" font-size="10px" fill="#2A2C34" font-family="Helvetica Neue, Helvetica, Arial, sans-serif"> hardknott</text></g><g class="node" aria-label="graph-node822" transform="translate(329.13799249727407,-109.51611675087302)"><circle class="b-outline" cx="0" cy="0" r="25" fill="#F79767" stroke="#f36924" stroke-width="2px"/><text class="caption" text-anchor="middle" pointer-events="none" x="0" y="5" font-size="10px" fill="#FFFFFF" font-family="Helvetica Neue, Helvetica, Arial, sans-serif"> 786d3aa…</text></g><g class="node" aria-label="graph-node893" transform="translate(316.8471255837837,-254.2610701694482)"><circle class="b-outline" cx="0" cy="0" r="25" fill="#8DCC93" stroke="#5db665" stroke-width="2px"/><text class="caption" text-anchor="middle" pointer-events="none" x="0" y="-5" font-size="10px" fill="#2A2C34" font-family="Helvetica Neue, Helvetica, Arial, sans-serif"> fix</text><text class="caption" text-anchor="middle" pointer-events="none" x="0" y="5" font-size="10px" fill="#2A2C34" font-family="Helvetica Neue, Helvetica, Arial, sans-serif"> renamed</text><text class="caption" text-anchor="middle" pointer-events="none" x="0" y="15" font-size="10px" fill="#2A2C34" font-family="Helvetica Neue, Helvetica, Arial, sans-serif"> patc…</text></g><g class="node" aria-label="graph-node892" transform="translate(210.97710223515097,-195.46554117977448)"><circle class="b-outline" cx="0" cy="0" r="25" fill="#C990C0" stroke="#b261a5" stroke-width="2px"/><text class="caption" text-anchor="middle" pointer-events="none" x="0" y="5" font-size="10px" fill="#FFFFFF" font-family="Helvetica Neue, Helvetica, Arial, sans-serif"> kueken</text></g><g class="node" aria-label="graph-node207" transform="translate(-5.600166152039925,-126.09489487016961)"><circle class="b-outline" cx="0" cy="0" r="25" fill="#57C7E3" stroke="#23b3d7" stroke-width="2px"/><text class="caption" text-anchor="middle" pointer-events="none" x="0" y="5" font-size="10px" fill="#2A2C34" font-family="Helvetica Neue, Helvetica, Arial, sans-serif"> hardknott</text></g><g class="node" aria-label="graph-node670" transform="translate(-93.09383817609066,-251.572538141883)"><circle class="b-outline" cx="0" cy="0" r="25" fill="#F79767" stroke="#f36924" stroke-width="2px"/><text class="caption" text-anchor="middle" pointer-events="none" x="0" y="5" font-size="10px" fill="#FFFFFF" font-family="Helvetica Neue, Helvetica, Arial, sans-serif"> 1cefabe…</text></g><g class="node" aria-label="graph-node763" transform="translate(-228.05248322913698,-302.60402726075716)"><circle class="b-outline" cx="0" cy="0" r="25" fill="#8DCC93" stroke="#5db665" stroke-width="2px"/><text class="caption" text-anchor="middle" pointer-events="none" x="0" y="5" font-size="10px" fill="#2A2C34" font-family="Helvetica Neue, Helvetica, Arial, sans-serif"> conf.py/…</text></g><g class="node" aria-label="graph-node715" transform="translate(-212.98967513959954,-168.7731436082173)"><circle class="b-outline" cx="0" cy="0" r="25" fill="#C990C0" stroke="#b261a5" stroke-width="2px"/><text class="caption" text-anchor="middle" pointer-events="none" x="0" y="0" font-size="10px" fill="#FFFFFF" font-family="Helvetica Neue, Helvetica, Arial, sans-serif"> Richard</text><text class="caption" text-anchor="middle" pointer-events="none" x="0" y="10" font-size="10px" fill="#FFFFFF" font-family="Helvetica Neue, Helvetica, Arial, sans-serif"> Purdie</text></g><g class="node" aria-label="graph-node206" transform="translate(-86.46605128816336,50.400881004675334)"><circle class="b-outline" cx="0" cy="0" r="25" fill="#57C7E3" stroke="#23b3d7" stroke-width="2px"/><text class="caption" text-anchor="middle" pointer-events="none" x="0" y="5" font-size="10px" fill="#2A2C34" font-family="Helvetica Neue, Helvetica, Arial, sans-serif"> master</text></g><g class="node" aria-label="graph-node951" transform="translate(-237.56635988733385,80.80414185164379)"><circle class="b-outline" cx="0" cy="0" r="25" fill="#F79767" stroke="#f36924" stroke-width="2px"/><text class="caption" text-anchor="middle" pointer-events="none" x="0" y="5" font-size="10px" fill="#FFFFFF" font-family="Helvetica Neue, Helvetica, Arial, sans-serif"> d42984ff…</text></g><g class="node" aria-label="graph-node972" transform="translate(-163.84320983698953,206.22007351132675)"><circle class="b-outline" cx="0" cy="0" r="25" fill="#C990C0" stroke="#b261a5" stroke-width="2px"/><text class="caption" text-anchor="middle" pointer-events="none" x="0" y="0" font-size="10px" fill="#FFFFFF" font-family="Helvetica Neue, Helvetica, Arial, sans-serif"> Steven</text><text class="caption" text-anchor="middle" pointer-events="none" x="0" y="10" font-size="10px" fill="#FFFFFF" font-family="Helvetica Neue, Helvetica, Arial, sans-serif"> Walter</text></g><g class="node" aria-label="graph-node984" transform="translate(-304.98692747865806,207.99799924182648)"><circle class="b-outline" cx="0" cy="0" r="25" fill="#8DCC93" stroke="#5db665" stroke-width="2px"/><text class="caption" text-anchor="middle" pointer-events="none" x="0" y="-5" font-size="10px" fill="#2A2C34" font-family="Helvetica Neue, Helvetica, Arial, sans-serif"> Merge</text><text class="caption" text-anchor="middle" pointer-events="none" x="0" y="5" font-size="10px" fill="#2A2C34" font-family="Helvetica Neue, Helvetica, Arial, sans-serif"> pull</text><text class="caption" text-anchor="middle" pointer-events="none" x="0" y="15" font-size="10px" fill="#2A2C34" font-family="Helvetica Neue, Helvetica, Arial, sans-serif"> req…</text></g></g></svg>