<svg xmlns="http://www.w3.org/2000/svg" width="828.3079833984375" height="819.3076171875" viewBox="-426.123291015625 -390.0887145996094 828.3079833984375 819.3076171875"><title>Neo4j Graph Visualization</title><desc>Created using Neo4j (http://www.neo4j.com/)</desc><g class="layer relationships"><g class="relationship" transform="translate(41.02726207615672 100.80148901605715) rotate(439.0002356545778)"><path class="b-outline" fill="#A5ABB6" stroke="none" d="M 25 0.5 L 65.84705981747939 0.5 L 65.84705981747939 -0.5 L 25 -0.5 Z M 84.74549731747939 0.5 L 125.59255713495878 0.5 L 125.59255713495878 3.5 L 132.59255713495878 0 L 125.59255713495878 -3.5 L 125.59255713495878 -0.5 L 84.74549731747939 -0.5 Z"/><text text-anchor="middle" pointer-events="none" font-size="8px" fill="#000000" x="75.29627856747939" y="3" font-family="Helvetica Neue, Helvetica, Arial, sans-serif">has</text></g><g class="relationship" transform="translate(67.70183655507405 400.2189066512512) rotate(271.34380639121645)"><path class="b-outline" fill="#FFC454" stroke="none" d="M 25 0.5 L 52.317484566699335 0.5 L 52.317484566699335 -0.5 L 25 -0.5 Z M 85.44248456669933 0.5 L 112.75996913339867 0.5 L 112.75996913339867 3.5 L 119.75996913339867 0 L 112.75996913339867 -3.5 L 112.75996913339867 -0.5 L 85.44248456669933 -0.5 Z"/><text text-anchor="middle" pointer-events="none" font-size="8px" fill="#000000" x="68.87998456669933" y="3" font-family="Helvetica Neue, Helvetica, Arial, sans-serif">links_to</text></g><g class="relationship" transform="translate(41.02726207615672 100.80148901605715) rotate(364.8292831045224)"><path class="b-outline" fill="#A5ABB6" stroke="none" d="M 25 0.5 L 73.79565065973806 0.5 L 73.79565065973806 -0.5 L 25 -0.5 Z M 92.69408815973806 0.5 L 141.48973881947612 0.5 L 141.48973881947612 3.5 L 148.48973881947612 0 L 141.48973881947612 -3.5 L 141.48973881947612 -0.5 L 92.69408815973806 -0.5 Z"/><text text-anchor="middle" pointer-events="none" font-size="8px" fill="#000000" x="83.24486940973806" y="3" font-family="Helvetica Neue, Helvetica, Arial, sans-serif">has</text></g><g class="relationship" transform="translate(373.1846226691421 49.83541430525067) rotate(517.6246794370264)"><path class="b-outline" fill="#FFC454" stroke="none" d="M 25 0.5 L 66.06369172773191 0.5 L 66.06369172773191 -0.5 L 25 -0.5 Z M 99.18869172773191 0.5 L 140.25238345546381 0.5 L 140.25238345546381 3.5 L 147.25238345546381 0 L 140.25238345546381 -3.5 L 140.25238345546381 -0.5 L 99.18869172773191 -0.5 Z"/><text text-anchor="middle" pointer-events="none" font-size="8px" fill="#000000" x="82.62619172773191" y="3" transform="rotate(180 82.62619172773191 0)" font-family="Helvetica Neue, Helvetica, Arial, sans-serif">links_to</text></g><g class="relationship" transform="translate(373.1846226691421 49.83541430525067) rotate(240.3364179903998)"><path class="b-outline" fill="#A5ABB6" stroke="none" d="M 25 0.5 L 31.316986730986557 0.5 L 31.316986730986557 -0.5 L 25 -0.5 Z M 81.79745548098656 0.5 L 88.11444221197311 0.5 L 88.11444221197311 3.5 L 95.11444221197311 0 L 88.11444221197311 -3.5 L 88.11444221197311 -0.5 L 81.79745548098656 -0.5 Z"/><text text-anchor="middle" pointer-events="none" font-size="8px" fill="#000000" x="56.55722110598656" y="3" transform="rotate(180 56.55722110598656 0)" font-family="Helvetica Neue, Helvetica, Arial, sans-serif">authored_by</text></g><g class="relationship" transform="translate(373.1846226691421 49.83541430525067) rotate(267.5531004628147)"><path class="b-outline" fill="#A5ABB6" stroke="none" d="M 25 0.5 L 63.11767801454029 0.5 L 63.11767801454029 -0.5 L 25 -0.5 Z M 118.92627176454029 0.5 L 157.04394977908058 0.5 L 157.04394977908058 3.5 L 164.04394977908058 0 L 157.04394977908058 -3.5 L 157.04394977908058 -0.5 L 118.92627176454029 -0.5 Z"/><text text-anchor="middle" pointer-events="none" font-size="8px" fill="#000000" x="91.02197488954029" y="3" transform="rotate(180 91.02197488954029 0)" font-family="Helvetica Neue, Helvetica, Arial, sans-serif">has_message</text></g><g class="relationship" transform="translate(41.02726207615672 100.80148901605715) rotate(254.46691016036914)"><path class="b-outline" fill="#A5ABB6" stroke="none" d="M 25 0.5 L 73.53036152560384 0.5 L 73.53036152560384 -0.5 L 25 -0.5 Z M 92.42879902560384 0.5 L 140.95916055120767 0.5 L 140.95916055120767 3.5 L 147.95916055120767 0 L 140.95916055120767 -3.5 L 140.95916055120767 -0.5 L 92.42879902560384 -0.5 Z"/><text text-anchor="middle" pointer-events="none" font-size="8px" fill="#000000" x="82.97958027560384" y="3" transform="rotate(180 82.97958027560384 0)" font-family="Helvetica Neue, Helvetica, Arial, sans-serif">has</text></g><g class="relationship" transform="translate(-74.05411821506898 -217.78700631625935) rotate(425.6507396851067)"><path class="b-outline" fill="#FFC454" stroke="none" d="M 25 0.5 L 63.32844813550858 0.5 L 63.32844813550858 -0.5 L 25 -0.5 Z M 96.45344813550858 0.5 L 134.78189627101716 0.5 L 134.78189627101716 3.5 L 141.78189627101716 0 L 134.78189627101716 -3.5 L 134.78189627101716 -0.5 L 96.45344813550858 -0.5 Z"/><text text-anchor="middle" pointer-events="none" font-size="8px" fill="#000000" x="79.89094813550858" y="3" font-family="Helvetica Neue, Helvetica, Arial, sans-serif">links_to</text></g><g class="relationship" transform="translate(-74.05411821506898 -217.78700631625935) rotate(504.1191823947452)"><path class="b-outline" fill="#A5ABB6" stroke="none" d="M 25 0.5 L 50.99239780844445 0.5 L 50.99239780844445 -0.5 L 25 -0.5 Z M 101.47286655844445 0.5 L 127.4652643668889 0.5 L 127.4652643668889 3.5 L 134.4652643668889 0 L 127.4652643668889 -3.5 L 127.4652643668889 -0.5 L 101.47286655844445 -0.5 Z"/><text text-anchor="middle" pointer-events="none" font-size="8px" fill="#000000" x="76.23263218344445" y="3" transform="rotate(180 76.23263218344445 0)" font-family="Helvetica Neue, Helvetica, Arial, sans-serif">authored_by</text></g><g class="relationship" transform="translate(-74.05411821506898 -217.78700631625935) rotate(280.3994123652752)"><path class="b-outline" fill="#A5ABB6" stroke="none" d="M 25 0.5 L 41.44319969904237 0.5 L 41.44319969904237 -0.5 L 25 -0.5 Z M 97.25179344904237 0.5 L 113.69499314808473 0.5 L 113.69499314808473 3.5 L 120.69499314808473 0 L 113.69499314808473 -3.5 L 113.69499314808473 -0.5 L 97.25179344904237 -0.5 Z"/><text text-anchor="middle" pointer-events="none" font-size="8px" fill="#000000" x="69.34749657404237" y="3" font-family="Helvetica Neue, Helvetica, Arial, sans-serif">has_message</text></g><g class="relationship" transform="translate(41.02726207615672 100.80148901605715) rotate(200.95847767279713)"><path class="b-outline" fill="#A5ABB6" stroke="none" d="M 25 0.5 L 71.6581303348821 0.5 L 71.6581303348821 -0.5 L 25 -0.5 Z M 90.5565678348821 0.5 L 137.2146981697642 0.5 L 137.2146981697642 3.5 L 144.2146981697642 0 L 137.2146981697642 -3.5 L 137.2146981697642 -0.5 L 90.5565678348821 -0.5 Z"/><text text-anchor="middle" pointer-events="none" font-size="8px" fill="#000000" x="81.1073490848821" y="3" transform="rotate(180 81.1073490848821 0)" font-family="Helvetica Neue, Helvetica, Arial, sans-serif">has</text></g><g class="relationship" transform="translate(-284.8370602151539 -14.972602418284556) rotate(378.219367783978)"><path class="b-outline" fill="#FFC454" stroke="none" d="M 25 0.5 L 68.28933757230756 0.5 L 68.28933757230756 -0.5 L 25 -0.5 Z M 101.41433757230756 0.5 L 144.70367514461512 0.5 L 144.70367514461512 3.5 L 151.70367514461512 0 L 144.70367514461512 -3.5 L 144.70367514461512 -0.5 L 101.41433757230756 -0.5 Z"/><text text-anchor="middle" pointer-events="none" font-size="8px" fill="#000000" x="84.85183757230756" y="3" font-family="Helvetica Neue, Helvetica, Arial, sans-serif">links_to</text></g><g class="relationship" transform="translate(-284.8370602151539 -14.972602418284556) rotate(306.7235516731093)"><path class="b-outline" fill="#A5ABB6" stroke="none" d="M 25 0.5 L 39.47408318700724 0.5 L 39.47408318700724 -0.5 L 25 -0.5 Z M 89.95455193700724 0.5 L 104.42863512401448 0.5 L 104.42863512401448 3.5 L 111.42863512401448 0 L 104.42863512401448 -3.5 L 104.42863512401448 -0.5 L 89.95455193700724 -0.5 Z"/><text text-anchor="middle" pointer-events="none" font-size="8px" fill="#000000" x="64.71431756200724" y="3" font-family="Helvetica Neue, Helvetica, Arial, sans-serif">authored_by</text></g><g class="relationship" transform="translate(-284.8370602151539 -14.972602418284556) rotate(219.59612011420927)"><path class="b-outline" fill="#A5ABB6" stroke="none" d="M 25 0.5 L 41.45618182220856 0.5 L 41.45618182220856 -0.5 L 25 -0.5 Z M 97.26477557220856 0.5 L 113.72095739441713 0.5 L 113.72095739441713 3.5 L 120.72095739441713 0 L 113.72095739441713 -3.5 L 113.72095739441713 -0.5 L 97.26477557220856 -0.5 Z"/><text text-anchor="middle" pointer-events="none" font-size="8px" fill="#000000" x="69.36047869720856" y="3" transform="rotate(180 69.36047869720856 0)" font-family="Helvetica Neue, Helvetica, Arial, sans-serif">has_message</text></g><g class="relationship" transform="translate(41.02726207615672 100.80148901605715) rotate(514.2975988181806)"><path class="b-outline" fill="#A5ABB6" stroke="none" d="M 25 0.5 L 66.24532526030225 0.5 L 66.24532526030225 -0.5 L 25 -0.5 Z M 85.14376276030225 0.5 L 126.3890880206045 0.5 L 126.3890880206045 3.5 L 133.3890880206045 0 L 126.3890880206045 -3.5 L 126.3890880206045 -0.5 L 85.14376276030225 -0.5 Z"/><text text-anchor="middle" pointer-events="none" font-size="8px" fill="#000000" x="75.69454401030225" y="3" transform="rotate(180 75.69454401030225 0)" font-family="Helvetica Neue, Helvetica, Arial, sans-serif">has</text></g><g class="relationship" transform="translate(-223.9838462378583 64.04585266806708) rotate(400.7698657157981)"><path class="b-outline" fill="#FFC454" stroke="none" d="M 25 0.5 L 60.67629855626262 0.5 L 60.67629855626262 -0.5 L 25 -0.5 Z M 93.80129855626262 0.5 L 129.47759711252525 0.5 L 129.47759711252525 3.5 L 136.47759711252525 0 L 129.47759711252525 -3.5 L 129.47759711252525 -0.5 L 93.80129855626262 -0.5 Z"/><text text-anchor="middle" pointer-events="none" font-size="8px" fill="#000000" x="77.23879855626262" y="3" font-family="Helvetica Neue, Helvetica, Arial, sans-serif">links_to</text></g><g class="relationship" transform="translate(-223.9838462378583 64.04585266806708) rotate(276.2785654567997)"><path class="b-outline" fill="#A5ABB6" stroke="none" d="M 25 0.5 L 66.01314634188265 0.5 L 66.01314634188265 -0.5 L 25 -0.5 Z M 116.49361509188265 0.5 L 157.5067614337653 0.5 L 157.5067614337653 3.5 L 164.5067614337653 0 L 157.5067614337653 -3.5 L 157.5067614337653 -0.5 L 116.49361509188265 -0.5 Z"/><text text-anchor="middle" pointer-events="none" font-size="8px" fill="#000000" x="91.25338071688265" y="3" font-family="Helvetica Neue, Helvetica, Arial, sans-serif">authored_by</text></g><g class="relationship" transform="translate(-223.9838462378583 64.04585266806708) rotate(489.02154195622666)"><path class="b-outline" fill="#A5ABB6" stroke="none" d="M 25 0.5 L 42.3485361708897 0.5 L 42.3485361708897 -0.5 L 25 -0.5 Z M 98.1571299208897 0.5 L 115.5056660917794 0.5 L 115.5056660917794 3.5 L 122.5056660917794 0 L 115.5056660917794 -3.5 L 115.5056660917794 -0.5 L 98.1571299208897 -0.5 Z"/><text text-anchor="middle" pointer-events="none" font-size="8px" fill="#000000" x="70.2528330458897" y="3" transform="rotate(180 70.2528330458897 0)" font-family="Helvetica Neue, Helvetica, Arial, sans-serif">has_message</text></g><g class="relationship" transform="translate(41.02726207615672 100.80148901605715) rotate(306.0653243490417)"><path class="b-outline" fill="#A5ABB6" stroke="none" d="M 25 0.5 L 62.71675976969783 0.5 L 62.71675976969783 -0.5 L 25 -0.5 Z M 81.61519726969783 0.5 L 119.33195703939566 0.5 L 119.33195703939566 3.5 L 126.33195703939566 0 L 119.33195703939566 -3.5 L 119.33195703939566 -0.5 L 81.61519726969783 -0.5 Z"/><text text-anchor="middle" pointer-events="none" font-size="8px" fill="#000000" x="72.16597851969783" y="3" font-family="Helvetica Neue, Helvetica, Arial, sans-serif">has</text></g><g class="relationship" transform="translate(192.81181163467033 -153.43473175765575) rotate(475.4212631739846)"><path class="b-outline" fill="#FFC454" stroke="none" d="M 25 0.5 L 52.96179606940784 0.5 L 52.96179606940784 -0.5 L 25 -0.5 Z M 86.08679606940784 0.5 L 114.04859213881568 0.5 L 114.04859213881568 3.5 L 121.04859213881568 0 L 114.04859213881568 -3.5 L 114.04859213881568 -0.5 L 86.08679606940784 -0.5 Z"/><text text-anchor="middle" pointer-events="none" font-size="8px" fill="#000000" x="69.52429606940784" y="3" transform="rotate(180 69.52429606940784 0)" font-family="Helvetica Neue, Helvetica, Arial, sans-serif">links_to</text></g><g class="relationship" transform="translate(192.81181163467033 -153.43473175765575) rotate(399.2770736408253)"><path class="b-outline" fill="#A5ABB6" stroke="none" d="M 25 0.5 L 49.368795366646495 0.5 L 49.368795366646495 -0.5 L 25 -0.5 Z M 99.8492641166465 0.5 L 124.21805948329299 0.5 L 124.21805948329299 3.5 L 131.218059483293 0 L 124.21805948329299 -3.5 L 124.21805948329299 -0.5 L 99.8492641166465 -0.5 Z"/><text text-anchor="middle" pointer-events="none" font-size="8px" fill="#000000" x="74.6090297416465" y="3" font-family="Helvetica Neue, Helvetica, Arial, sans-serif">authored_by</text></g><g class="relationship" transform="translate(192.81181163467033 -153.43473175765575) rotate(364.7768754387551)"><path class="b-outline" fill="#A5ABB6" stroke="none" d="M 25 0.5 L 55.04692121003279 0.5 L 55.04692121003279 -0.5 L 25 -0.5 Z M 110.85551496003279 0.5 L 140.90243617006558 0.5 L 140.90243617006558 3.5 L 147.90243617006558 0 L 140.90243617006558 -3.5 L 140.90243617006558 -0.5 L 110.85551496003279 -0.5 Z"/><text text-anchor="middle" pointer-events="none" font-size="8px" fill="#000000" x="82.95121808503279" y="3" font-family="Helvetica Neue, Helvetica, Arial, sans-serif">has_message</text></g></g><g class="layer nodes"><g class="node" aria-label="graph-node41" transform="translate(41.02726207615672,100.80148901605715)"><circle class="b-outline" cx="0" cy="0" r="25" fill="#D9C8AE" stroke="#c0a378" stroke-width="2px"/><text class="caption" text-anchor="middle" pointer-events="none" x="0" y="5" font-size="10px" fill="#2A2C34" font-family="Helvetica Neue, Helvetica, Arial, sans-serif"> https://gi…</text></g><g class="node" aria-label="graph-node42" transform="translate(67.70183655507405,400.2189066512512)"><circle class="b-outline" cx="0" cy="0" r="25" fill="#F79767" stroke="#f36924" stroke-width="2px"/><text class="caption" text-anchor="middle" pointer-events="none" x="0" y="5" font-size="10px" fill="#FFFFFF" font-family="Helvetica Neue, Helvetica, Arial, sans-serif"> 3843824…</text></g><g class="node" aria-label="graph-node43" transform="translate(71.09670332031699,255.4987506841269)"><circle class="b-outline" cx="0" cy="0" r="25" fill="#57C7E3" stroke="#23b3d7" stroke-width="2px"/><text class="caption" text-anchor="middle" pointer-events="none" x="0" y="5" font-size="10px" fill="#2A2C34" font-family="Helvetica Neue, Helvetica, Arial, sans-serif"> patch</text></g><g class="node" aria-label="graph-node44" transform="translate(373.1846226691421,49.83541430525067)"><circle class="b-outline" cx="0" cy="0" r="25" fill="#F79767" stroke="#f36924" stroke-width="2px"/><text class="caption" text-anchor="middle" pointer-events="none" x="0" y="5" font-size="10px" fill="#FFFFFF" font-family="Helvetica Neue, Helvetica, Arial, sans-serif"> 631544a…</text></g><g class="node" aria-label="graph-node45" transform="translate(213.90110581368538,115.4070916076164)"><circle class="b-outline" cx="0" cy="0" r="25" fill="#57C7E3" stroke="#23b3d7" stroke-width="2px"/><text class="caption" text-anchor="middle" pointer-events="none" x="0" y="5" font-size="10px" fill="#2A2C34" font-family="Helvetica Neue, Helvetica, Arial, sans-serif"> dunfell</text></g><g class="node" aria-label="graph-node46" transform="translate(313.7392099789553,-54.53758094728967)"><circle class="b-outline" cx="0" cy="0" r="25" fill="#C990C0" stroke="#b261a5" stroke-width="2px"/><text class="caption" text-anchor="middle" pointer-events="none" x="0" y="5" font-size="10px" fill="#FFFFFF" font-family="Helvetica Neue, Helvetica, Arial, sans-serif"> fmubot</text></g><g class="node" aria-label="graph-node47" transform="translate(365.1136799144146,-139.03616860526938)"><circle class="b-outline" cx="0" cy="0" r="25" fill="#8DCC93" stroke="#5db665" stroke-width="2px"/><text class="caption" text-anchor="middle" pointer-events="none" x="0" y="0" font-size="10px" fill="#2A2C34" font-family="Helvetica Neue, Helvetica, Arial, sans-serif"> Add new</text><text class="caption" text-anchor="middle" pointer-events="none" x="0" y="10" font-size="10px" fill="#2A2C34" font-family="Helvetica Neue, Helvetica, Arial, sans-serif"> revisio…</text></g><g class="node" aria-label="graph-node48" transform="translate(-74.05411821506898,-217.78700631625935)"><circle class="b-outline" cx="0" cy="0" r="25" fill="#F79767" stroke="#f36924" stroke-width="2px"/><text class="caption" text-anchor="middle" pointer-events="none" x="0" y="5" font-size="10px" fill="#FFFFFF" font-family="Helvetica Neue, Helvetica, Arial, sans-serif"> 1690caa…</text></g><g class="node" aria-label="graph-node49" transform="translate(-5.29031102809127,-65.84050341175522)"><circle class="b-outline" cx="0" cy="0" r="25" fill="#57C7E3" stroke="#23b3d7" stroke-width="2px"/><text class="caption" text-anchor="middle" pointer-events="none" x="0" y="5" font-size="10px" fill="#2A2C34" font-family="Helvetica Neue, Helvetica, Arial, sans-serif"> honister</text></g><g class="node" aria-label="graph-node50" transform="translate(-203.25892075439626,-124.32423543728731)"><circle class="b-outline" cx="0" cy="0" r="25" fill="#C990C0" stroke="#b261a5" stroke-width="2px"/><text class="caption" text-anchor="middle" pointer-events="none" x="0" y="-5" font-size="10px" fill="#FFFFFF" font-family="Helvetica Neue, Helvetica, Arial, sans-serif"> Ralf</text><text class="caption" text-anchor="middle" pointer-events="none" x="0" y="5" font-size="10px" fill="#FFFFFF" font-family="Helvetica Neue, Helvetica, Arial, sans-serif"> Anton</text><text class="caption" text-anchor="middle" pointer-events="none" x="0" y="15" font-size="10px" fill="#FFFFFF" font-family="Helvetica Neue, Helvetica, Arial, sans-serif"> Beier</text></g><g class="node" aria-label="graph-node51" transform="translate(-47.75485230866427,-361.08871475410274)"><circle class="b-outline" cx="0" cy="0" r="25" fill="#8DCC93" stroke="#5db665" stroke-width="2px"/><text class="caption" text-anchor="middle" pointer-events="none" x="0" y="-5" font-size="10px" fill="#2A2C34" font-family="Helvetica Neue, Helvetica, Arial, sans-serif"> Adjusted</text><text class="caption" text-anchor="middle" pointer-events="none" x="0" y="5" font-size="10px" fill="#2A2C34" font-family="Helvetica Neue, Helvetica, Arial, sans-serif"> the</text><text class="caption" text-anchor="middle" pointer-events="none" x="0" y="15" font-size="10px" fill="#2A2C34" font-family="Helvetica Neue, Helvetica, Arial, sans-serif"> bra…</text></g><g class="node" aria-label="graph-node52" transform="translate(-284.8370602151539,-14.972602418284556)"><circle class="b-outline" cx="0" cy="0" r="25" fill="#F79767" stroke="#f36924" stroke-width="2px"/><text class="caption" text-anchor="middle" pointer-events="none" x="0" y="5" font-size="10px" fill="#FFFFFF" font-family="Helvetica Neue, Helvetica, Arial, sans-serif"> b1ef949…</text></g><g class="node" aria-label="graph-node53" transform="translate(-116.99217322625842,40.27486558974794)"><circle class="b-outline" cx="0" cy="0" r="25" fill="#57C7E3" stroke="#23b3d7" stroke-width="2px"/><text class="caption" text-anchor="middle" pointer-events="none" x="0" y="5" font-size="10px" fill="#2A2C34" font-family="Helvetica Neue, Helvetica, Arial, sans-serif"> kirkstone</text></g><g class="node" aria-label="graph-node54" transform="translate(-397.12327732336695,-107.8510330223423)"><circle class="b-outline" cx="0" cy="0" r="25" fill="#8DCC93" stroke="#5db665" stroke-width="2px"/><text class="caption" text-anchor="middle" pointer-events="none" x="0" y="0" font-size="10px" fill="#2A2C34" font-family="Helvetica Neue, Helvetica, Arial, sans-serif"> Update</text><text class="caption" text-anchor="middle" pointer-events="none" x="0" y="10" font-size="10px" fill="#2A2C34" font-family="Helvetica Neue, Helvetica, Arial, sans-serif"> yocto.…</text></g><g class="node" aria-label="graph-node55" transform="translate(-223.9838462378583,64.04585266806708)"><circle class="b-outline" cx="0" cy="0" r="25" fill="#F79767" stroke="#f36924" stroke-width="2px"/><text class="caption" text-anchor="middle" pointer-events="none" x="0" y="5" font-size="10px" fill="#FFFFFF" font-family="Helvetica Neue, Helvetica, Arial, sans-serif"> e6d59b8…</text></g><g class="node" aria-label="graph-node56" transform="translate(-101.6906268765083,169.49433709279344)"><circle class="b-outline" cx="0" cy="0" r="25" fill="#57C7E3" stroke="#23b3d7" stroke-width="2px"/><text class="caption" text-anchor="middle" pointer-events="none" x="0" y="5" font-size="10px" fill="#2A2C34" font-family="Helvetica Neue, Helvetica, Arial, sans-serif"> langdale</text></g><g class="node" aria-label="graph-node57" transform="translate(-316.8552627987398,178.64437584858086)"><circle class="b-outline" cx="0" cy="0" r="25" fill="#8DCC93" stroke="#5db665" stroke-width="2px"/><text class="caption" text-anchor="middle" pointer-events="none" x="0" y="-5" font-size="10px" fill="#2A2C34" font-family="Helvetica Neue, Helvetica, Arial, sans-serif"> Update</text><text class="caption" text-anchor="middle" pointer-events="none" x="0" y="5" font-size="10px" fill="#2A2C34" font-family="Helvetica Neue, Helvetica, Arial, sans-serif"> to</text><text class="caption" text-anchor="middle" pointer-events="none" x="0" y="15" font-size="10px" fill="#2A2C34" font-family="Helvetica Neue, Helvetica, Arial, sans-serif"> lang…</text></g><g class="node" aria-label="graph-node58" transform="translate(192.81181163467033,-153.43473175765575)"><circle class="b-outline" cx="0" cy="0" r="25" fill="#F79767" stroke="#f36924" stroke-width="2px"/><text class="caption" text-anchor="middle" pointer-events="none" x="0" y="5" font-size="10px" fill="#FFFFFF" font-family="Helvetica Neue, Helvetica, Arial, sans-serif"> 81ba5ed…</text></g><g class="node" aria-label="graph-node59" transform="translate(130.11748242434436,-21.527141564379193)"><circle class="b-outline" cx="0" cy="0" r="25" fill="#57C7E3" stroke="#23b3d7" stroke-width="2px"/><text class="caption" text-anchor="middle" pointer-events="none" x="0" y="5" font-size="10px" fill="#2A2C34" font-family="Helvetica Neue, Helvetica, Arial, sans-serif"> main</text></g></g></svg>