<svg xmlns="http://www.w3.org/2000/svg" width="705.966064453125" height="846.8573608398438" viewBox="-581.3886108398438 -586.8861083984375 705.966064453125 846.8573608398438"><title>Neo4j Graph Visualization</title><desc>Created using Neo4j (http://www.neo4j.com/)</desc><g class="layer relationships"><g class="relationship" transform="translate(73.26027330664536 230.97125145755615) rotate(180.75257800020012)"><path class="b-outline" fill="#A5ABB6" stroke="none" d="M 25 0.5 L 213.61823691402222 0.5 L 213.61823691402222 -0.5 L 25 -0.5 Z M 232.51667441402222 0.5 L 421.13491132804444 0.5 L 421.13491132804444 3.5 L 428.13491132804444 0 L 421.13491132804444 -3.5 L 421.13491132804444 -0.5 L 232.51667441402222 -0.5 Z"/><text text-anchor="middle" pointer-events="none" font-size="8px" fill="#000000" x="223.06745566402222" y="3" transform="rotate(180 223.06745566402222 0)" font-family="Helvetica Neue, Helvetica, Arial, sans-serif">has</text></g><g class="relationship" transform="translate(73.26027330664536 230.97125145755615) rotate(270.5193032009511)"><path class="b-outline" fill="#A5ABB6" stroke="none" d="M 25 0.5 L 84.34664968821933 0.5 L 84.34664968821933 -0.5 L 25 -0.5 Z M 103.24508718821933 0.5 L 162.59173687643866 0.5 L 162.59173687643866 3.5 L 169.59173687643866 0 L 162.59173687643866 -3.5 L 162.59173687643866 -0.5 L 103.24508718821933 -0.5 Z"/><text text-anchor="middle" pointer-events="none" font-size="8px" fill="#000000" x="93.79586843821933" y="3" font-family="Helvetica Neue, Helvetica, Arial, sans-serif">has</text></g><g class="relationship" transform="translate(-59.322059326700185 27.539190198122697) rotate(363.76818117699656)"><path class="b-outline" fill="#FFC454" stroke="none" d="M 25 0.5 L 47.25603492588495 0.5 L 47.25603492588495 -0.5 L 25 -0.5 Z M 80.38103492588495 0.5 L 102.6370698517699 0.5 L 102.6370698517699 3.5 L 109.6370698517699 0 L 102.6370698517699 -3.5 L 102.6370698517699 -0.5 L 80.38103492588495 -0.5 Z"/><text text-anchor="middle" pointer-events="none" font-size="8px" fill="#000000" x="63.81853492588495" y="3" font-family="Helvetica Neue, Helvetica, Arial, sans-serif">links_to</text></g><g class="relationship" transform="translate(-404.73281448339236 32.2462896465116) rotate(442.6408087269855)"><path class="b-outline" fill="#FFC454" stroke="none" d="M 25 0.5 L 77.12467637368869 0.5 L 77.12467637368869 -0.5 L 25 -0.5 Z M 110.24967637368869 0.5 L 162.37435274737737 0.5 L 162.37435274737737 3.5 L 169.37435274737737 0 L 162.37435274737737 -3.5 L 162.37435274737737 -0.5 L 110.24967637368869 -0.5 Z"/><text text-anchor="middle" pointer-events="none" font-size="8px" fill="#000000" x="93.68717637368869" y="3" font-family="Helvetica Neue, Helvetica, Arial, sans-serif">links_to</text></g><g class="relationship" transform="translate(-404.73281448339236 32.2462896465116) rotate(375.0455617188347)"><path class="b-outline" fill="#A5ABB6" stroke="none" d="M 25 0.5 L 82.44324746527236 0.5 L 82.44324746527236 -0.5 L 25 -0.5 Z M 132.92371621527235 0.5 L 190.36696368054473 0.5 L 190.36696368054473 3.5 L 197.36696368054473 0 L 190.36696368054473 -3.5 L 190.36696368054473 -0.5 L 132.92371621527235 -0.5 Z"/><text text-anchor="middle" pointer-events="none" font-size="8px" fill="#000000" x="107.68348184027236" y="3" font-family="Helvetica Neue, Helvetica, Arial, sans-serif">authored_by</text></g><g class="relationship" transform="translate(-404.73281448339236 32.2462896465116) rotate(343.360677285527)"><path class="b-outline" fill="#A5ABB6" stroke="none" d="M 25 0.5 L 77.30205529018669 0.5 L 77.30205529018669 -0.5 L 25 -0.5 Z M 133.11064904018667 0.5 L 185.41270433037337 0.5 L 185.41270433037337 3.5 L 192.41270433037337 0 L 185.41270433037337 -3.5 L 185.41270433037337 -0.5 L 133.11064904018667 -0.5 Z"/><text text-anchor="middle" pointer-events="none" font-size="8px" fill="#000000" x="105.20635216518669" y="3" font-family="Helvetica Neue, Helvetica, Arial, sans-serif">has_message</text></g><g class="relationship" transform="translate(-404.73281448339236 32.2462896465116) rotate(270.00082994848884)"><path class="b-outline" fill="#A5ABB6" stroke="none" d="M 25 0.5 L 31.860578781985105 0.5 L 31.860578781985105 -0.5 L 25 -0.5 Z M 67.65745378198511 0.5 L 74.51803256397021 0.5 L 74.51803256397021 3.5 L 81.51803256397021 0 L 74.51803256397021 -3.5 L 74.51803256397021 -0.5 L 67.65745378198511 -0.5 Z"/><text text-anchor="middle" pointer-events="none" font-size="8px" fill="#000000" x="49.759016281985105" y="3" font-family="Helvetica Neue, Helvetica, Arial, sans-serif">contains</text></g><g class="relationship" transform="translate(-59.322059326700185 27.539190198122697) rotate(514.4621757759568)"><path class="b-outline" fill="#A5ABB6" stroke="none" d="M 25 0.5 L 43.66720672667874 0.5 L 43.66720672667874 -0.5 L 25 -0.5 Z M 94.14767547667874 0.5 L 112.81488220335748 0.5 L 112.81488220335748 3.5 L 119.81488220335748 0 L 112.81488220335748 -3.5 L 112.81488220335748 -0.5 L 94.14767547667874 -0.5 Z"/><text text-anchor="middle" pointer-events="none" font-size="8px" fill="#000000" x="68.90744110167874" y="3" transform="rotate(180 68.90744110167874 0)" font-family="Helvetica Neue, Helvetica, Arial, sans-serif">authored_by</text></g><g class="relationship" transform="translate(-59.322059326700185 27.539190198122697) rotate(202.77009540385313)"><path class="b-outline" fill="#A5ABB6" stroke="none" d="M 25 0.5 L 42.94072645474918 0.5 L 42.94072645474918 -0.5 L 25 -0.5 Z M 98.74932020474918 0.5 L 116.69004665949836 0.5 L 116.69004665949836 3.5 L 123.69004665949836 0 L 116.69004665949836 -3.5 L 116.69004665949836 -0.5 L 98.74932020474918 -0.5 Z"/><text text-anchor="middle" pointer-events="none" font-size="8px" fill="#000000" x="70.84502332974918" y="3" transform="rotate(180 70.84502332974918 0)" font-family="Helvetica Neue, Helvetica, Arial, sans-serif">has_message</text></g><g class="relationship" transform="translate(-404.7312715341401 -74.27174290628355) rotate(268.6833082235219)"><path class="b-outline" fill="#A5ABB6" stroke="none" d="M 25 0.5 L 50.2570335440937 0.5 L 50.2570335440937 -0.5 L 25 -0.5 Z M 76.7062522940937 0.5 L 101.9632858381874 0.5 L 101.9632858381874 3.5 L 108.9632858381874 0 L 101.9632858381874 -3.5 L 101.9632858381874 -0.5 L 76.7062522940937 -0.5 Z"/><text text-anchor="middle" pointer-events="none" font-size="8px" fill="#000000" x="63.4816429190937" y="3" transform="rotate(180 63.4816429190937 0)" font-family="Helvetica Neue, Helvetica, Arial, sans-serif">refers</text></g><g class="relationship" transform="translate(-552.3885804086519 -209.10467434631033) rotate(360.3586482404811)"><path class="b-outline" fill="#A5ABB6" stroke="none" d="M 25 0.5 L 59.341708638720206 0.5 L 59.341708638720206 -0.5 L 25 -0.5 Z M 78.2401461387202 0.5 L 112.58185477744041 0.5 L 112.58185477744041 3.5 L 119.58185477744041 0 L 112.58185477744041 -3.5 L 112.58185477744041 -0.5 L 78.2401461387202 -0.5 Z"/><text text-anchor="middle" pointer-events="none" font-size="8px" fill="#000000" x="68.7909273887202" y="3" font-family="Helvetica Neue, Helvetica, Arial, sans-serif">has</text></g><g class="relationship" transform="translate(-186.08270383581078 -200.63888898712725) rotate(181.9529988641051)"><path class="b-outline" fill="#FFC454" stroke="none" d="M 25 0.5 L 90.86536297643036 0.5 L 90.86536297643036 -0.5 L 25 -0.5 Z M 123.99036297643036 0.5 L 189.85572595286072 0.5 L 189.85572595286072 3.5 L 196.85572595286072 0 L 189.85572595286072 -3.5 L 189.85572595286072 -0.5 L 123.99036297643036 -0.5 Z"/><text text-anchor="middle" pointer-events="none" font-size="8px" fill="#000000" x="107.42786297643036" y="3" transform="rotate(180 107.42786297643036 0)" font-family="Helvetica Neue, Helvetica, Arial, sans-serif">links_to</text></g><g class="relationship" transform="translate(-186.08270383581078 -200.63888898712725) rotate(399.31786063064817)"><path class="b-outline" fill="#A5ABB6" stroke="none" d="M 25 0.5 L 28.38163390838684 0.5 L 28.38163390838684 -0.5 L 25 -0.5 Z M 78.86210265838685 0.5 L 82.24373656677368 0.5 L 82.24373656677368 3.5 L 89.24373656677368 0 L 82.24373656677368 -3.5 L 82.24373656677368 -0.5 L 78.86210265838685 -0.5 Z"/><text text-anchor="middle" pointer-events="none" font-size="8px" fill="#000000" x="53.62186828338684" y="3" font-family="Helvetica Neue, Helvetica, Arial, sans-serif">authored_by</text></g><g class="relationship" transform="translate(-186.08270383581078 -200.63888898712725) rotate(362.4642134370876)"><path class="b-outline" fill="#A5ABB6" stroke="none" d="M 25 0.5 L 25.28957627616262 0.5 L 25.28957627616262 -0.5 L 25 -0.5 Z M 71.75051377616262 0.5 L 72.04009005232524 0.5 L 72.04009005232524 3.5 L 79.04009005232524 0 L 72.04009005232524 -3.5 L 72.04009005232524 -0.5 L 71.75051377616262 -0.5 Z"/><text text-anchor="middle" pointer-events="none" font-size="8px" fill="#000000" x="48.52004502616262" y="3" font-family="Helvetica Neue, Helvetica, Arial, sans-serif">has_mes…</text></g><g class="relationship" transform="translate(-186.08270383581078 -200.63888898712725) rotate(270.75379263454084)"><path class="b-outline" fill="#A5ABB6" stroke="none" d="M 25 0.5 L 35.58334701456931 0.5 L 35.58334701456931 -0.5 L 25 -0.5 Z M 71.38022201456931 0.5 L 81.96356902913863 0.5 L 81.96356902913863 3.5 L 88.96356902913863 0 L 81.96356902913863 -3.5 L 81.96356902913863 -0.5 L 71.38022201456931 -0.5 Z"/><text text-anchor="middle" pointer-events="none" font-size="8px" fill="#000000" x="53.48178451456931" y="3" font-family="Helvetica Neue, Helvetica, Arial, sans-serif">contains</text></g><g class="relationship" transform="translate(-184.58342375697615 -314.5925954871988) rotate(307.67131452108976)"><path class="b-outline" fill="#A5ABB6" stroke="none" d="M 25 0.5 L 80.5720025068166 0.5 L 80.5720025068166 -0.5 L 25 -0.5 Z M 107.0212212568166 0.5 L 162.5932237636332 0.5 L 162.5932237636332 3.5 L 169.5932237636332 0 L 162.5932237636332 -3.5 L 162.5932237636332 -0.5 L 107.0212212568166 -0.5 Z"/><text text-anchor="middle" pointer-events="none" font-size="8px" fill="#000000" x="93.7966118818166" y="3" font-family="Helvetica Neue, Helvetica, Arial, sans-serif">refers</text></g><g class="relationship" transform="translate(-184.58342375697615 -314.5925954871988) rotate(233.9859553392168)"><path class="b-outline" fill="#A5ABB6" stroke="none" d="M 25 0.5 L 73.01910932447088 0.5 L 73.01910932447088 -0.5 L 25 -0.5 Z M 99.46832807447088 0.5 L 147.48743739894175 0.5 L 147.48743739894175 3.5 L 154.48743739894175 0 L 147.48743739894175 -3.5 L 147.48743739894175 -0.5 L 99.46832807447088 -0.5 Z"/><text text-anchor="middle" pointer-events="none" font-size="8px" fill="#000000" x="86.24371869947088" y="3" transform="rotate(180 86.24371869947088 0)" font-family="Helvetica Neue, Helvetica, Arial, sans-serif">refers</text></g><g class="relationship" transform="translate(-184.58342375697615 -314.5925954871988) rotate(333.98166894936116)"><path class="b-outline" fill="#A5ABB6" stroke="none" d="M 25 0.5 L 138.88496030593424 0.5 L 138.88496030593424 -0.5 L 25 -0.5 Z M 165.33417905593424 0.5 L 279.2191393618685 0.5 L 279.2191393618685 3.5 L 286.2191393618685 0 L 279.2191393618685 -3.5 L 279.2191393618685 -0.5 L 165.33417905593424 -0.5 Z"/><text text-anchor="middle" pointer-events="none" font-size="8px" fill="#000000" x="152.10956968093424" y="3" font-family="Helvetica Neue, Helvetica, Arial, sans-serif">refers</text></g><g class="relationship" transform="translate(-61.089198077158784 -557.8861150023583) rotate(452.9321528520944)"><path class="b-outline" fill="#A5ABB6" stroke="none" d="M 25 0.5 L 31.742903413722644 0.5 L 31.742903413722644 -0.5 L 25 -0.5 Z M 50.641340913722644 0.5 L 57.38424432744529 0.5 L 57.38424432744529 3.5 L 64.38424432744529 0 L 57.38424432744529 -3.5 L 57.38424432744529 -0.5 L 50.641340913722644 -0.5 Z"/><text text-anchor="middle" pointer-events="none" font-size="8px" fill="#000000" x="41.192122163722644" y="3" transform="rotate(180 41.192122163722644 0)" font-family="Helvetica Neue, Helvetica, Arial, sans-serif">has</text></g><g class="relationship" transform="translate(-295.2078963828508 -547.6633246591762) rotate(446.6862184093716)"><path class="b-outline" fill="#A5ABB6" stroke="none" d="M 25 0.5 L 31.06848500365009 0.5 L 31.06848500365009 -0.5 L 25 -0.5 Z M 49.96692250365009 0.5 L 56.03540750730018 0.5 L 56.03540750730018 3.5 L 63.03540750730018 0 L 56.03540750730018 -3.5 L 56.03540750730018 -0.5 L 49.96692250365009 -0.5 Z"/><text text-anchor="middle" pointer-events="none" font-size="8px" fill="#000000" x="40.51770375365009" y="3" font-family="Helvetica Neue, Helvetica, Arial, sans-serif">has</text></g><g class="relationship" transform="translate(95.57746774003206 -556.5192869577226) rotate(450.26234641187875)"><path class="b-outline" fill="#A5ABB6" stroke="none" d="M 25 0.5 L 39.755190730030144 0.5 L 39.755190730030144 -0.5 L 25 -0.5 Z M 58.653628230030144 0.5 L 73.40881896006029 0.5 L 73.40881896006029 3.5 L 80.40881896006029 0 L 73.40881896006029 -3.5 L 73.40881896006029 -0.5 L 58.653628230030144 -0.5 Z"/><text text-anchor="middle" pointer-events="none" font-size="8px" fill="#000000" x="49.204409480030144" y="3" transform="rotate(180 49.204409480030144 0)" font-family="Helvetica Neue, Helvetica, Arial, sans-serif">has</text></g></g><g class="layer nodes"><g class="node" aria-label="graph-node1522512" transform="translate(73.26027330664536,230.97125145755615)"><circle class="b-outline" cx="0" cy="0" r="25" fill="#D9C8AE" stroke="#c0a378" stroke-width="2px"/><text class="caption" text-anchor="middle" pointer-events="none" x="0" y="5" font-size="10px" fill="#2A2C34" font-family="Helvetica Neue, Helvetica, Arial, sans-serif"> https://gi…</text></g><g class="node" aria-label="graph-node1522518" transform="translate(-552.3885804086519,-209.10467434631033)"><circle class="b-outline" cx="0" cy="0" r="25" fill="#D9C8AE" stroke="#c0a378" stroke-width="2px"/><text class="caption" text-anchor="middle" pointer-events="none" x="0" y="5" font-size="10px" fill="#2A2C34" font-family="Helvetica Neue, Helvetica, Arial, sans-serif"> https://gi…</text></g><g class="node" aria-label="graph-node1522528" transform="translate(-61.089198077158784,-557.8861150023583)"><circle class="b-outline" cx="0" cy="0" r="25" fill="#D9C8AE" stroke="#c0a378" stroke-width="2px"/><text class="caption" text-anchor="middle" pointer-events="none" x="0" y="5" font-size="10px" fill="#2A2C34" font-family="Helvetica Neue, Helvetica, Arial, sans-serif"> https://gi…</text></g><g class="node" aria-label="graph-node1522530" transform="translate(-295.2078963828508,-547.6633246591762)"><circle class="b-outline" cx="0" cy="0" r="25" fill="#D9C8AE" stroke="#c0a378" stroke-width="2px"/><text class="caption" text-anchor="middle" pointer-events="none" x="0" y="5" font-size="10px" fill="#2A2C34" font-family="Helvetica Neue, Helvetica, Arial, sans-serif"> https://gi…</text></g><g class="node" aria-label="graph-node1522532" transform="translate(95.57746774003206,-556.5192869577226)"><circle class="b-outline" cx="0" cy="0" r="25" fill="#D9C8AE" stroke="#c0a378" stroke-width="2px"/><text class="caption" text-anchor="middle" pointer-events="none" x="0" y="5" font-size="10px" fill="#2A2C34" font-family="Helvetica Neue, Helvetica, Arial, sans-serif"> https://gi…</text></g><g class="node" aria-label="graph-node1522514" transform="translate(-379.8355495168003,225.01951186148935)"><circle class="b-outline" cx="0" cy="0" r="25" fill="#57C7E3" stroke="#23b3d7" stroke-width="2px"/><text class="caption" text-anchor="middle" pointer-events="none" x="0" y="5" font-size="10px" fill="#2A2C34" font-family="Helvetica Neue, Helvetica, Arial, sans-serif"> dunfell</text></g><g class="node" aria-label="graph-node1522521" transform="translate(75.02394122713949,36.38750718261587)"><circle class="b-outline" cx="0" cy="0" r="25" fill="#57C7E3" stroke="#23b3d7" stroke-width="2px"/><text class="caption" text-anchor="middle" pointer-events="none" x="0" y="5" font-size="10px" fill="#2A2C34" font-family="Helvetica Neue, Helvetica, Arial, sans-serif"> main</text></g><g class="node" aria-label="graph-node1522520" transform="translate(-59.322059326700185,27.539190198122697)"><circle class="b-outline" cx="0" cy="0" r="25" fill="#F79767" stroke="#f36924" stroke-width="2px"/><text class="caption" text-anchor="middle" pointer-events="none" x="0" y="5" font-size="10px" fill="#FFFFFF" font-family="Helvetica Neue, Helvetica, Arial, sans-serif"> 4dfe1a3…</text></g><g class="node" aria-label="graph-node1522513" transform="translate(-404.73281448339236,32.2462896465116)"><circle class="b-outline" cx="0" cy="0" r="25" fill="#F79767" stroke="#f36924" stroke-width="2px"/><text class="caption" text-anchor="middle" pointer-events="none" x="0" y="5" font-size="10px" fill="#FFFFFF" font-family="Helvetica Neue, Helvetica, Arial, sans-serif"> fc10045…</text></g><g class="node" aria-label="graph-node1522515" transform="translate(-189.98865536304373,89.96987806752965)"><circle class="b-outline" cx="0" cy="0" r="25" fill="#C990C0" stroke="#b261a5" stroke-width="2px"/><text class="caption" text-anchor="middle" pointer-events="none" x="0" y="-5" font-size="10px" fill="#FFFFFF" font-family="Helvetica Neue, Helvetica, Arial, sans-serif"> Ralf</text><text class="caption" text-anchor="middle" pointer-events="none" x="0" y="5" font-size="10px" fill="#FFFFFF" font-family="Helvetica Neue, Helvetica, Arial, sans-serif"> Anton</text><text class="caption" text-anchor="middle" pointer-events="none" x="0" y="15" font-size="10px" fill="#FFFFFF" font-family="Helvetica Neue, Helvetica, Arial, sans-serif"> Beier</text></g><g class="node" aria-label="graph-node1522516" transform="translate(-196.42398934520338,-30.00897016174681)"><circle class="b-outline" cx="0" cy="0" r="25" fill="#8DCC93" stroke="#5db665" stroke-width="2px"/><text class="caption" text-anchor="middle" pointer-events="none" x="0" y="0" font-size="10px" fill="#2A2C34" font-family="Helvetica Neue, Helvetica, Arial, sans-serif"> Update</text><text class="caption" text-anchor="middle" pointer-events="none" x="0" y="10" font-size="10px" fill="#2A2C34" font-family="Helvetica Neue, Helvetica, Arial, sans-serif"> defaul…</text></g><g class="node" aria-label="graph-node1522517" transform="translate(-404.7312715341401,-74.27174290628355)"><circle class="b-outline" cx="0" cy="0" r="25" fill="#ECB5C9" stroke="#da7298" stroke-width="2px"/><text class="caption" text-anchor="middle" pointer-events="none" x="0" y="5" font-size="10px" fill="#2A2C34" font-family="Helvetica Neue, Helvetica, Arial, sans-serif"> TODO.xml</text></g><g class="node" aria-label="graph-node1522519" transform="translate(-407.8095581612381,-208.19965674057477)"><circle class="b-outline" cx="0" cy="0" r="25" fill="#57C7E3" stroke="#23b3d7" stroke-width="2px"/><text class="caption" text-anchor="middle" pointer-events="none" x="0" y="5" font-size="10px" fill="#2A2C34" font-family="Helvetica Neue, Helvetica, Arial, sans-serif"> dunfell</text></g><g class="node" aria-label="graph-node1522524" transform="translate(-186.08270383581078,-200.63888898712725)"><circle class="b-outline" cx="0" cy="0" r="25" fill="#F79767" stroke="#f36924" stroke-width="2px"/><text class="caption" text-anchor="middle" pointer-events="none" x="0" y="5" font-size="10px" fill="#FFFFFF" font-family="Helvetica Neue, Helvetica, Arial, sans-serif"> 631544a…</text></g><g class="node" aria-label="graph-node1522525" transform="translate(-97.69886755501662,-128.25153630015467)"><circle class="b-outline" cx="0" cy="0" r="25" fill="#C990C0" stroke="#b261a5" stroke-width="2px"/><text class="caption" text-anchor="middle" pointer-events="none" x="0" y="5" font-size="10px" fill="#FFFFFF" font-family="Helvetica Neue, Helvetica, Arial, sans-serif"> fmubot</text></g><g class="node" aria-label="graph-node1522526" transform="translate(-82.1388226629063,-196.16564577788165)"><circle class="b-outline" cx="0" cy="0" r="25" fill="#8DCC93" stroke="#5db665" stroke-width="2px"/><text class="caption" text-anchor="middle" pointer-events="none" x="0" y="0" font-size="10px" fill="#2A2C34" font-family="Helvetica Neue, Helvetica, Arial, sans-serif"> Add new</text><text class="caption" text-anchor="middle" pointer-events="none" x="0" y="10" font-size="10px" fill="#2A2C34" font-family="Helvetica Neue, Helvetica, Arial, sans-serif"> revisio…</text></g><g class="node" aria-label="graph-node1522527" transform="translate(-184.58342375697615,-314.5925954871988)"><circle class="b-outline" cx="0" cy="0" r="25" fill="#ECB5C9" stroke="#da7298" stroke-width="2px"/><text class="caption" text-anchor="middle" pointer-events="none" x="0" y="5" font-size="10px" fill="#2A2C34" font-family="Helvetica Neue, Helvetica, Arial, sans-serif"> fmu-proj…</text></g><g class="node" aria-label="graph-node1522529" transform="translate(-65.6615048788691,-468.61889176504985)"><circle class="b-outline" cx="0" cy="0" r="25" fill="#57C7E3" stroke="#23b3d7" stroke-width="2px"/><text class="caption" text-anchor="middle" pointer-events="none" x="0" y="5" font-size="10px" fill="#2A2C34" font-family="Helvetica Neue, Helvetica, Arial, sans-serif"> hardknott</text></g><g class="node" aria-label="graph-node1522531" transform="translate(-290.11908355101804,-459.7751174926912)"><circle class="b-outline" cx="0" cy="0" r="25" fill="#57C7E3" stroke="#23b3d7" stroke-width="2px"/><text class="caption" text-anchor="middle" pointer-events="none" x="0" y="5" font-size="10px" fill="#2A2C34" font-family="Helvetica Neue, Helvetica, Arial, sans-serif"> hardknott</text></g><g class="node" aria-label="graph-node1522533" transform="translate(95.0948226125719,-451.1115729694394)"><circle class="b-outline" cx="0" cy="0" r="25" fill="#57C7E3" stroke="#23b3d7" stroke-width="2px"/><text class="caption" text-anchor="middle" pointer-events="none" x="0" y="5" font-size="10px" fill="#2A2C34" font-family="Helvetica Neue, Helvetica, Arial, sans-serif"> master</text></g></g></svg>