<svg xmlns="http://www.w3.org/2000/svg" width="608.444091796875" height="467.64508056640625" viewBox="-471.5884094238281 -272.26470947265625 608.444091796875 467.64508056640625"><title>Neo4j Graph Visualization</title><desc>Created using Neo4j (http://www.neo4j.com/)</desc><g class="layer relationships"><g class="relationship" transform="translate(107.85567099917502 35.378949126752076) rotate(184.05536570068057)"><path class="b-outline" fill="#A5ABB6" stroke="none" d="M 25 0.5 L 62.641131395796705 0.5 L 62.641131395796705 -0.5 L 25 -0.5 Z M 81.5395688957967 0.5 L 119.18070029159341 0.5 L 119.18070029159341 3.5 L 126.18070029159341 0 L 119.18070029159341 -3.5 L 119.18070029159341 -0.5 L 81.5395688957967 -0.5 Z"/><text text-anchor="middle" pointer-events="none" font-size="8px" fill="#000000" x="72.0903501457967" y="3" transform="rotate(180 72.0903501457967 0)" font-family="Helvetica Neue, Helvetica, Arial, sans-serif">has</text></g><g class="relationship" transform="translate(-248.21604360438548 24.470948980163627) rotate(360.06041382151443)"><path class="b-outline" fill="#FFC454" stroke="none" d="M 25 0.5 L 82.57232900111428 0.5 L 82.57232900111428 -0.5 L 25 -0.5 Z M 115.69732900111428 0.5 L 173.26965800222857 0.5 L 173.26965800222857 3.5 L 180.26965800222857 0 L 173.26965800222857 -3.5 L 173.26965800222857 -0.5 L 115.69732900111428 -0.5 Z"/><text text-anchor="middle" pointer-events="none" font-size="8px" fill="#000000" x="99.13482900111428" y="3" font-family="Helvetica Neue, Helvetica, Arial, sans-serif">links_to</text></g><g class="relationship" transform="translate(-248.21604360438548 24.470948980163627) rotate(197.26822283205212)"><path class="b-outline" fill="#A5ABB6" stroke="none" d="M 25 0.5 L 80.37512685547306 0.5 L 80.37512685547306 -0.5 L 25 -0.5 Z M 116.17200185547306 0.5 L 171.5471287109461 0.5 L 171.5471287109461 3.5 L 178.5471287109461 0 L 171.5471287109461 -3.5 L 171.5471287109461 -0.5 L 116.17200185547306 -0.5 Z"/><text text-anchor="middle" pointer-events="none" font-size="8px" fill="#000000" x="98.27356435547306" y="3" transform="rotate(180 98.27356435547306 0)" font-family="Helvetica Neue, Helvetica, Arial, sans-serif">contains</text></g><g class="relationship" transform="translate(-442.5884038671074 -35.951060026233264) rotate(348.06964157687617)"><path class="b-outline" fill="#A5ABB6" stroke="none" d="M 25 0.5 L 75.8620018693217 0.5 L 75.8620018693217 -0.5 L 25 -0.5 Z M 102.3112206193217 0.5 L 153.1732224886434 0.5 L 153.1732224886434 3.5 L 160.1732224886434 0 L 153.1732224886434 -3.5 L 153.1732224886434 -0.5 L 102.3112206193217 -0.5 Z"/><text text-anchor="middle" pointer-events="none" font-size="8px" fill="#000000" x="89.0866112443217" y="3" font-family="Helvetica Neue, Helvetica, Arial, sans-serif">refers</text></g><g class="relationship" transform="translate(-111.40036304508477 -99.07268292224315) rotate(530.5972615306009)"><path class="b-outline" fill="#A5ABB6" stroke="none" d="M 25 0.5 L 63.0795954349492 0.5 L 63.0795954349492 -0.5 L 25 -0.5 Z M 81.9780329349492 0.5 L 120.0576283698984 0.5 L 120.0576283698984 3.5 L 127.0576283698984 0 L 120.0576283698984 -3.5 L 120.0576283698984 -0.5 L 81.9780329349492 -0.5 Z"/><text text-anchor="middle" pointer-events="none" font-size="8px" fill="#000000" x="72.5288141849492" y="3" transform="rotate(180 72.5288141849492 0)" font-family="Helvetica Neue, Helvetica, Arial, sans-serif">has</text></g><g class="relationship" transform="translate(-98.23913339150775 166.38036147554956) rotate(186.69380520357618)"><path class="b-outline" fill="#A5ABB6" stroke="none" d="M 25 0.5 L 68.51162553559503 0.5 L 68.51162553559503 -0.5 L 25 -0.5 Z M 87.41006303559503 0.5 L 130.92168857119006 0.5 L 130.92168857119006 3.5 L 137.92168857119006 0 L 130.92168857119006 -3.5 L 130.92168857119006 -0.5 L 87.41006303559503 -0.5 Z"/><text text-anchor="middle" pointer-events="none" font-size="8px" fill="#000000" x="77.96084428559503" y="3" transform="rotate(180 77.96084428559503 0)" font-family="Helvetica Neue, Helvetica, Arial, sans-serif">has</text></g><g class="relationship" transform="translate(-442.5884038671074 -35.951060026233264) rotate(405.1256765996146)"><path class="b-outline" fill="#A5ABB6" stroke="none" d="M 25 0.5 L 112.63342740311046 0.5 L 112.63342740311046 -0.5 L 25 -0.5 Z M 139.08264615311046 0.5 L 226.71607355622092 0.5 L 226.71607355622092 3.5 L 233.71607355622092 0 L 226.71607355622092 -3.5 L 226.71607355622092 -0.5 L 139.08264615311046 -0.5 Z"/><text text-anchor="middle" pointer-events="none" font-size="8px" fill="#000000" x="125.85803677811046" y="3" font-family="Helvetica Neue, Helvetica, Arial, sans-serif">refers</text></g><g class="relationship" transform="translate(-121.63574885372162 -243.2647312070696) rotate(518.6648227908847)"><path class="b-outline" fill="#A5ABB6" stroke="none" d="M 25 0.5 L 73.45353478470375 0.5 L 73.45353478470375 -0.5 L 25 -0.5 Z M 92.35197228470375 0.5 L 140.8055070694075 0.5 L 140.8055070694075 3.5 L 147.8055070694075 0 L 140.8055070694075 -3.5 L 140.8055070694075 -0.5 L 92.35197228470375 -0.5 Z"/><text text-anchor="middle" pointer-events="none" font-size="8px" fill="#000000" x="82.90275353470375" y="3" transform="rotate(180 82.90275353470375 0)" font-family="Helvetica Neue, Helvetica, Arial, sans-serif">has</text></g><g class="relationship" transform="translate(-442.5884038671074 -35.951060026233264) rotate(317.92345061028664)"><path class="b-outline" fill="#A5ABB6" stroke="none" d="M 25 0.5 L 91.04892463842914 0.5 L 91.04892463842914 -0.5 L 25 -0.5 Z M 117.49814338842914 0.5 L 183.54706802685828 0.5 L 183.54706802685828 3.5 L 190.54706802685828 0 L 183.54706802685828 -3.5 L 183.54706802685828 -0.5 L 117.49814338842914 -0.5 Z"/><text text-anchor="middle" pointer-events="none" font-size="8px" fill="#000000" x="104.27353401342914" y="3" font-family="Helvetica Neue, Helvetica, Arial, sans-serif">refers</text></g></g><g class="layer nodes"><g class="node" aria-label="graph-node179" transform="translate(107.85567099917502,35.378949126752076)"><circle class="b-outline" cx="0" cy="0" r="25" fill="#D9C8AE" stroke="#c0a378" stroke-width="2px"/><text class="caption" text-anchor="middle" pointer-events="none" x="0" y="5" font-size="10px" fill="#2A2C34" font-family="Helvetica Neue, Helvetica, Arial, sans-serif"> https://gi…</text></g><g class="node" aria-label="graph-node183" transform="translate(-42.94649971172835,24.687389393198167)"><circle class="b-outline" cx="0" cy="0" r="25" fill="#57C7E3" stroke="#23b3d7" stroke-width="2px"/><text class="caption" text-anchor="middle" pointer-events="none" x="0" y="5" font-size="10px" fill="#2A2C34" font-family="Helvetica Neue, Helvetica, Arial, sans-serif"> dunfell</text></g><g class="node" aria-label="graph-node182" transform="translate(-248.21604360438548,24.470948980163627)"><circle class="b-outline" cx="0" cy="0" r="25" fill="#F79767" stroke="#f36924" stroke-width="2px"/><text class="caption" text-anchor="middle" pointer-events="none" x="0" y="5" font-size="10px" fill="#FFFFFF" font-family="Helvetica Neue, Helvetica, Arial, sans-serif"> 631544a…</text></g><g class="node" aria-label="graph-node203" transform="translate(-442.5884038671074,-35.951060026233264)"><circle class="b-outline" cx="0" cy="0" r="25" fill="#ECB5C9" stroke="#da7298" stroke-width="2px"/><text class="caption" text-anchor="middle" pointer-events="none" x="0" y="5" font-size="10px" fill="#2A2C34" font-family="Helvetica Neue, Helvetica, Arial, sans-serif"> fmu-proj…</text></g><g class="node" aria-label="graph-node204" transform="translate(-261.4149989889814,-74.23055442852731)"><circle class="b-outline" cx="0" cy="0" r="25" fill="#57C7E3" stroke="#23b3d7" stroke-width="2px"/><text class="caption" text-anchor="middle" pointer-events="none" x="0" y="5" font-size="10px" fill="#2A2C34" font-family="Helvetica Neue, Helvetica, Arial, sans-serif"> hardknott</text></g><g class="node" aria-label="graph-node201" transform="translate(-111.40036304508477,-99.07268292224315)"><circle class="b-outline" cx="0" cy="0" r="25" fill="#D9C8AE" stroke="#c0a378" stroke-width="2px"/><text class="caption" text-anchor="middle" pointer-events="none" x="0" y="5" font-size="10px" fill="#2A2C34" font-family="Helvetica Neue, Helvetica, Arial, sans-serif"> https://gi…</text></g><g class="node" aria-label="graph-node207" transform="translate(-282.59855426249567,-180.39408186691892)"><circle class="b-outline" cx="0" cy="0" r="25" fill="#57C7E3" stroke="#23b3d7" stroke-width="2px"/><text class="caption" text-anchor="middle" pointer-events="none" x="0" y="5" font-size="10px" fill="#2A2C34" font-family="Helvetica Neue, Helvetica, Arial, sans-serif"> hardknott</text></g><g class="node" aria-label="graph-node199" transform="translate(-121.63574885372162,-243.2647312070696)"><circle class="b-outline" cx="0" cy="0" r="25" fill="#D9C8AE" stroke="#c0a378" stroke-width="2px"/><text class="caption" text-anchor="middle" pointer-events="none" x="0" y="5" font-size="10px" fill="#2A2C34" font-family="Helvetica Neue, Helvetica, Arial, sans-serif"> https://gi…</text></g><g class="node" aria-label="graph-node206" transform="translate(-260.0502268660631,147.38966281919278)"><circle class="b-outline" cx="0" cy="0" r="25" fill="#57C7E3" stroke="#23b3d7" stroke-width="2px"/><text class="caption" text-anchor="middle" pointer-events="none" x="0" y="5" font-size="10px" fill="#2A2C34" font-family="Helvetica Neue, Helvetica, Arial, sans-serif"> master</text></g><g class="node" aria-label="graph-node205" transform="translate(-98.23913339150775,166.38036147554956)"><circle class="b-outline" cx="0" cy="0" r="25" fill="#D9C8AE" stroke="#c0a378" stroke-width="2px"/><text class="caption" text-anchor="middle" pointer-events="none" x="0" y="5" font-size="10px" fill="#2A2C34" font-family="Helvetica Neue, Helvetica, Arial, sans-serif"> https://gi…</text></g></g></svg>